<svg xmlns="http://www.w3.org/2000/svg" viewBox="0 0 515 70" width="515" height="70"><path d="M256 0C114.848 0 0 114.848 0 256v240c0 8.832 7.168 16 16 16h240c141.152 0 256-114.848 256-256S397.152 0 256 0z" transform="matrix(.13684 0 0 .13658 0 -.065)" fill="#127af1"/><path d="M652 46c27.6 0 50 22.4 50 50s-22.4 50-50 50-50-22.4-50-50 22.4-50 50-50z" transform="matrix(.32885 0 0 .32824 -179.381 3.39)" fill="#333" stroke="#fff" stroke-width="25" fill-opacity="0" id="g-2"/><path d="M58 49h100v100H58V49z" transform="matrix(.08221 0 0 .36035 9.744 16.243)" fill="#fff" id="g-4"/><path d="M109.85 62.958v14.25h-8.18v-40.52h13.8c4.007 0 7.203 1.243 9.59 3.73 2.387 2.486 3.58 5.713 3.58 9.68 0 3.973-1.18 7.11-3.54 9.41-2.353 2.3-5.62 3.45-9.8 3.45h-5.45m0-6.82h5.62c1.56 0 2.767-.51 3.62-1.53.853-1.02 1.28-2.504 1.28-4.45 0-2.027-.437-3.637-1.31-4.83-.873-1.2-2.043-1.807-3.51-1.82h-5.7v12.63zm37.33-1.45l-2.62-.22c-2.154 0-3.61.946-4.37 2.84v19.9h-7.9v-30.11h7.43l.22 3.25c1.246-2.54 2.963-3.81 5.15-3.81.893 0 1.616.12 2.17.36l-.08 7.79zm.73 6.49c0-4.567 1.077-8.147 3.23-10.74 2.154-2.6 5.13-3.9 8.93-3.9 3.84 0 6.837 1.3 8.99 3.9 2.154 2.593 3.23 6.19 3.23 10.79v1.92c0 4.586-1.066 8.17-3.2 10.75-2.133 2.58-5.12 3.87-8.96 3.87-3.86 0-6.863-1.297-9.01-3.89-2.14-2.587-3.21-6.18-3.21-10.78v-1.92m7.9 1.97c0 5.386 1.44 8.08 4.32 8.08 2.654 0 4.08-2.247 4.28-6.74l.03-3.31c0-2.747-.38-4.784-1.14-6.11-.76-1.327-1.836-1.99-3.23-1.99-1.333 0-2.376.663-3.13 1.99-.753 1.326-1.13 3.363-1.13 6.11v1.97zm21.806 14.06v-24.19h-3.65v-5.92h3.65v-2.7c.014-3.327.89-5.914 2.63-7.76 1.734-1.84 4.13-2.76 7.19-2.76.927 0 2.114.183 3.56.55l-.05 6.29c-.54-.167-1.18-.25-1.92-.25-2.34 0-3.51 1.393-3.51 4.18v2.45h4.7v5.92h-4.7v24.19h-7.9zm23.74 0h-7.9v-30.11h7.9v30.11m-8.26-37.91c0-1.22.39-2.22 1.17-3 .774-.78 1.81-1.17 3.11-1.17 1.3 0 2.34.39 3.12 1.17.78.78 1.17 1.78 1.17 3 0 1.206-.386 2.21-1.16 3.01-.766.8-1.81 1.2-3.13 1.2-1.312 0-2.356-.4-3.13-1.2-.766-.8-1.15-1.804-1.15-3.01zm21.237 37.91h-7.9v-42.75h7.9v42.75zm16.877.56c-4.047 0-7.2-1.207-9.46-3.62-2.267-2.414-3.4-5.867-3.4-10.36v-2.39c0-4.747 1.04-8.41 3.12-10.99s5.057-3.87 8.93-3.87c3.787 0 6.637 1.21 8.55 3.63 1.907 2.42 2.88 6.006 2.92 10.76v3.87H226.2c.113 2.226.603 3.853 1.47 4.88.873 1.033 2.22 1.55 4.04 1.55 2.633 0 4.833-.9 6.6-2.7l3.09 4.76c-.967 1.333-2.37 2.413-4.21 3.24-1.833.826-3.827 1.24-5.98 1.24m-4.95-18.48h7.87v-.73c-.033-1.8-.33-3.164-.89-4.09-.553-.927-1.517-1.39-2.89-1.39-1.373 0-2.373.49-3 1.47-.62.986-.983 2.566-1.09 4.74zm42.14 3.81c0 4.733-.813 8.36-2.44 10.88-1.62 2.526-4.036 3.79-7.25 3.79-2.446 0-4.413-.994-5.9-2.98v14h-7.87v-41.69h7.29l.28 2.75c1.5-2.207 3.55-3.31 6.15-3.31 3.207 0 5.624 1.17 7.25 3.51 1.62 2.333 2.45 5.913 2.49 10.74v2.31m-7.85-1.98c0-2.914-.32-4.974-.96-6.18-.64-1.2-1.72-1.8-3.24-1.8-1.613 0-2.793.676-3.54 2.03v14.11c.707 1.3 1.904 1.95 3.59 1.95 1.56 0 2.644-.66 3.25-1.98.6-1.32.9-3.37.9-6.15v-1.98zm19.487 16.09h-7.9v-42.75h7.9v42.75zm16.877.56c-4.047 0-7.2-1.207-9.46-3.62-2.267-2.414-3.4-5.867-3.4-10.36v-2.39c0-4.747 1.04-8.41 3.12-10.99s5.056-3.87 8.93-3.87c3.786 0 6.636 1.21 8.55 3.63 1.906 2.42 2.88 6.006 2.92 10.76v3.87h-15.67c.113 2.226.603 3.853 1.47 4.88.873 1.033 2.22 1.55 4.04 1.55 2.633 0 4.833-.9 6.6-2.7l3.09 4.76c-.967 1.333-2.37 2.413-4.21 3.24-1.834.826-3.827 1.24-5.98 1.24m-4.95-18.48h7.87v-.73c-.034-1.8-.33-3.164-.89-4.09-.554-.927-1.517-1.39-2.89-1.39-1.374 0-2.374.49-3 1.47-.62.986-.984 2.566-1.09 4.74zm28.75-3.26l3.51-8.93h8.35l-6.88 14.72 7.13 15.39h-8.38l-3.7-9.44-3.67 9.44h-8.41l7.13-15.39-6.82-14.72h8.37l3.37 8.93z" transform="matrix(.98305 0 0 .9822 -17.183 -21.098)" fill="#252525"/><path d="M322.795 34.732l4.45 13.92 4.45-13.92h2.77v17.06h-2.15v-6.64l.2-6.66-4.46 13.3h-1.64l-4.44-13.25.19 6.61v6.64h-2.14v-17.06h2.77zm18.461 17.29c-1.58 0-2.79-.47-3.63-1.41-.846-.94-1.276-2.32-1.29-4.14v-1.54c0-1.887.414-3.367 1.24-4.44.82-1.074 1.97-1.61 3.45-1.61 1.48 0 2.59.47 3.33 1.41.734.946 1.107 2.42 1.12 4.42v1.36h-7.08v.29c0 1.36.257 2.35.77 2.97.514.613 1.25.92 2.21.92.607 0 1.144-.114 1.61-.34.467-.234.904-.6 1.31-1.1l1.08 1.32c-.9 1.26-2.273 1.89-4.12 1.89m-.23-11.36c-.86 0-1.496.293-1.91.88-.413.593-.65 1.51-.71 2.75h5v-.28c-.06-1.207-.276-2.067-.65-2.58-.38-.514-.956-.77-1.73-.77zm11.96 7.88c0-.44-.166-.82-.5-1.14-.34-.327-.99-.704-1.95-1.13-1.112-.46-1.9-.854-2.36-1.18-.46-.334-.8-.707-1.02-1.12-.226-.42-.34-.92-.34-1.5 0-1.027.378-1.884 1.13-2.57.754-.68 1.714-1.02 2.88-1.02 1.24 0 2.234.356 2.98 1.07.754.72 1.13 1.643 1.13 2.77h-2.07c0-.574-.19-1.06-.57-1.46-.38-.4-.87-.6-1.47-.6-.606 0-1.082.156-1.43.47-.346.32-.52.743-.52 1.27 0 .426.128.766.38 1.02.254.26.864.6 1.83 1.02 1.54.6 2.588 1.19 3.14 1.77.56.573.84 1.3.84 2.18 0 1.1-.38 1.98-1.14 2.64-.76.66-1.776.99-3.05.99-1.32 0-2.39-.377-3.21-1.13-.82-.76-1.23-1.724-1.23-2.89h2.09c.02.706.234 1.26.64 1.66.408.393.978.59 1.71.59.688 0 1.21-.154 1.57-.46.36-.307.54-.724.54-1.25zm9.797 0c0-.44-.167-.82-.5-1.14-.34-.327-.99-.704-1.95-1.13-1.113-.46-1.9-.854-2.36-1.18-.46-.334-.8-.707-1.02-1.12-.227-.42-.34-.92-.34-1.5 0-1.027.377-1.884 1.13-2.57.753-.68 1.713-1.02 2.88-1.02 1.24 0 2.233.356 2.98 1.07.753.72 1.13 1.643 1.13 2.77h-2.07c0-.574-.19-1.06-.57-1.46-.38-.4-.87-.6-1.47-.6-.607 0-1.083.156-1.43.47-.347.32-.52.743-.52 1.27 0 .426.127.766.38 1.02.253.26.863.6 1.83 1.02 1.54.6 2.587 1.19 3.14 1.77.56.573.84 1.3.84 2.18 0 1.1-.38 1.98-1.14 2.64-.76.66-1.777.99-3.05.99-1.32 0-2.39-.377-3.21-1.13-.82-.76-1.23-1.724-1.23-2.89h2.09c.02.706.233 1.26.64 1.66.407.393.977.59 1.71.59.687 0 1.21-.154 1.57-.46.36-.307.54-.724.54-1.25zm8.166 3.48c-1.58 0-2.79-.47-3.63-1.41-.847-.94-1.277-2.32-1.29-4.14v-1.54c0-1.887.413-3.367 1.24-4.44.82-1.074 1.97-1.61 3.45-1.61 1.48 0 2.59.47 3.33 1.41.733.946 1.107 2.42 1.12 4.42v1.36h-7.08v.29c0 1.36.257 2.35.77 2.97.513.613 1.25.92 2.21.92.607 0 1.143-.114 1.61-.34.467-.234.903-.6 1.31-1.1l1.08 1.32c-.9 1.26-2.273 1.89-4.12 1.89m-.23-11.36c-.86 0-1.497.293-1.91.88-.413.593-.65 1.51-.71 2.75h5v-.28c-.06-1.207-.277-2.067-.65-2.58-.38-.514-.957-.77-1.73-.77zm7.75-1.55l.06 1.37c.807-1.067 1.834-1.6 3.08-1.6 2.247 0 3.384 1.493 3.41 4.48v8.43h-2.06v-8.33c0-.994-.166-1.7-.5-2.12-.326-.414-.823-.62-1.49-.62-.513 0-.976.17-1.39.51-.406.346-.736.796-.99 1.35v9.21h-2.07v-12.68h1.95zm8.116 5.77c0-1.98.357-3.477 1.07-4.49.72-1.007 1.774-1.51 3.16-1.51 1.287 0 2.267.55 2.94 1.65l.1-1.42h1.88v12.8c0 1.566-.403 2.77-1.21 3.61-.8.84-1.92 1.26-3.36 1.26-.626 0-1.326-.154-2.1-.46-.78-.307-1.366-.687-1.76-1.14l.85-1.43c.86.84 1.807 1.26 2.84 1.26 1.727 0 2.614-.94 2.66-2.82v-1.65c-.666.986-1.616 1.48-2.85 1.48-1.313 0-2.336-.494-3.07-1.48-.74-.987-1.123-2.407-1.15-4.26v-1.4m2.07 1.18c0 1.42.21 2.463.63 3.13.414.673 1.097 1.01 2.05 1.01 1.034 0 1.807-.53 2.32-1.59v-6.34c-.533-1.034-1.296-1.55-2.29-1.55-.953 0-1.64.333-2.06 1-.426.666-.643 1.69-.65 3.07v1.27zm13.557 5.96c-1.58 0-2.79-.47-3.63-1.41-.847-.94-1.277-2.32-1.29-4.14v-1.54c0-1.887.413-3.367 1.24-4.44.82-1.074 1.97-1.61 3.45-1.61 1.48 0 2.59.47 3.33 1.41.733.946 1.107 2.42 1.12 4.42v1.36h-7.08v.29c0 1.36.257 2.35.77 2.97.513.613 1.25.92 2.21.92.607 0 1.143-.114 1.61-.34.467-.234.903-.6 1.31-1.1l1.08 1.32c-.9 1.26-2.273 1.89-4.12 1.89m-.23-11.36c-.86 0-1.497.293-1.91.88-.413.593-.65 1.51-.71 2.75h5v-.28c-.06-1.207-.277-2.067-.65-2.58-.38-.514-.957-.77-1.73-.77zm11.04.4a4.687 4.687 0 0 0-.94-.09c-1.066 0-1.81.583-2.23 1.75v9.07h-2.07v-12.68h2.01l.04 1.29c.554-1.014 1.337-1.52 2.35-1.52.334 0 .607.053.82.16l.02 2.02z" transform="matrix(2.0926 0 0 2.0926 -349.593 -54.52)" fill="#127af1"/></svg>